<svg xmlns="http://www.w3.org/2000/svg" viewBox="0 0 64 64">
  <defs>
    <linearGradient id="grad1" x1="0%" y1="0%" x2="100%" y2="100%">
      <stop offset="0%" style="stop-color:#667eea;stop-opacity:1" />
      <stop offset="100%" style="stop-color:#764ba2;stop-opacity:1" />
    </linearGradient>
    <linearGradient id="grad2" x1="0%" y1="0%" x2="100%" y2="100%">
      <stop offset="0%" style="stop-color:#f093fb;stop-opacity:1" />
      <stop offset="100%" style="stop-color:#f5576c;stop-opacity:1" />
    </linearGradient>
  </defs>
  <!-- Background hexagon representing Nexus/connection -->
  <polygon points="32,2 58,17 58,47 32,62 6,47 6,17" fill="url(#grad1)" />
  <!-- Inner hexagon -->
  <polygon points="32,10 50,21 50,43 32,54 14,43 14,21" fill="#1a1a2e" />
  <!-- Pixel grid pattern representing PixelForge -->
  <rect x="22" y="20" width="6" height="6" fill="url(#grad2)" rx="1"/>
  <rect x="29" y="20" width="6" height="6" fill="#fff" opacity="0.9" rx="1"/>
  <rect x="36" y="20" width="6" height="6" fill="url(#grad2)" rx="1"/>
  <rect x="22" y="27" width="6" height="6" fill="#fff" opacity="0.9" rx="1"/>
  <rect x="29" y="27" width="6" height="6" fill="url(#grad2)" rx="1"/>
  <rect x="36" y="27" width="6" height="6" fill="#fff" opacity="0.9" rx="1"/>
  <rect x="22" y="34" width="6" height="6" fill="url(#grad2)" rx="1"/>
  <rect x="29" y="34" width="6" height="6" fill="#fff" opacity="0.9" rx="1"/>
  <rect x="36" y="34" width="6" height="6" fill="url(#grad2)" rx="1"/>
  <!-- Connection nodes representing Nexus -->
  <circle cx="32" cy="27" r="2" fill="#fff"/>
  <circle cx="25" cy="37" r="2" fill="#fff"/>
  <circle cx="39" cy="37" r="2" fill="#fff"/>
</svg>
